<svg xmlns="http://www.w3.org/2000/svg" xmlns:xlink="http://www.w3.org/1999/xlink" width="2000" zoomAndPan="magnify" viewBox="0 0 1500 1499.999933" height="2000" preserveAspectRatio="xMidYMid meet" version="1.0"><defs><clipPath id="44e4f32691"><path d="M 438 1188 L 1061 1188 L 1061 1489.140625 L 438 1489.140625 Z M 438 1188 " clip-rule="nonzero"/></clipPath><clipPath id="5c1ddb9a44"><path d="M 345 1460 L 1155 1460 L 1155 1489.140625 L 345 1489.140625 Z M 345 1460 " clip-rule="nonzero"/></clipPath><clipPath id="345274b919"><path d="M 328 10.890625 L 1057 10.890625 L 1057 742 L 328 742 Z M 328 10.890625 " clip-rule="nonzero"/></clipPath><clipPath id="f2fab2fde2"><path d="M 495 10.890625 L 889 10.890625 L 889 742 L 495 742 Z M 495 10.890625 " clip-rule="nonzero"/></clipPath></defs><path fill="#b0dbfa" d="M 692.269531 253.414062 C 755.789062 253.414062 813.53125 259.1875 865.503906 267.851562 C 842.40625 126.378906 773.113281 25.324219 692.269531 25.324219 C 611.429688 25.324219 542.136719 126.378906 519.039062 267.851562 C 571.007812 259.1875 628.75 253.414062 692.269531 253.414062 Z M 692.269531 253.414062 " fill-opacity="1" fill-rule="evenodd"/><path fill="#b0dbfa" d="M 692.269531 25.324219 C 773.113281 25.324219 842.40625 126.378906 865.503906 267.851562 C 972.328125 290.949219 1041.621094 331.367188 1041.621094 374.675781 C 1041.621094 340.03125 1038.734375 305.382812 1027.1875 273.625 C 983.878906 129.265625 851.066406 25.324219 692.269531 25.324219 Z M 692.269531 25.324219 " fill-opacity="1" fill-rule="evenodd"/><path fill="#b0dbfa" d="M 519.039062 267.851562 C 542.136719 126.378906 611.429688 25.324219 692.269531 25.324219 C 533.472656 25.324219 400.660156 129.265625 357.355469 273.625 C 345.804688 305.382812 342.917969 340.03125 342.917969 374.675781 C 342.917969 331.367188 412.210938 290.949219 519.039062 267.851562 Z M 519.039062 267.851562 " fill-opacity="1" fill-rule="evenodd"/><path fill="#b0dbfa" d="M 519.039062 267.851562 C 412.210938 290.949219 342.917969 331.367188 342.917969 374.675781 C 342.917969 420.871094 412.210938 461.292969 519.039062 481.503906 C 513.261719 446.855469 510.375 412.210938 510.375 374.675781 C 510.375 337.144531 513.261719 302.496094 519.039062 267.851562 Z M 519.039062 267.851562 " fill-opacity="1" fill-rule="evenodd"/><path fill="#b0dbfa" d="M 519.039062 481.503906 C 412.210938 461.292969 342.917969 420.871094 342.917969 374.675781 C 342.917969 380.453125 342.917969 383.339844 342.917969 386.226562 C 348.691406 573.894531 501.714844 726.917969 692.269531 726.917969 C 611.429688 726.917969 542.136719 622.976562 519.039062 481.503906 Z M 519.039062 481.503906 " fill-opacity="1" fill-rule="evenodd"/><path fill="#b0dbfa" d="M 519.039062 481.503906 C 542.136719 622.976562 611.429688 726.917969 692.269531 726.917969 C 773.113281 726.917969 842.40625 622.976562 865.503906 481.503906 C 813.53125 493.050781 755.789062 498.828125 692.269531 498.828125 C 628.75 498.828125 571.007812 493.050781 519.039062 481.503906 Z M 519.039062 481.503906 " fill-opacity="1" fill-rule="evenodd"/><path fill="#b0dbfa" d="M 519.039062 481.503906 C 571.007812 493.050781 628.75 498.828125 692.269531 498.828125 C 755.789062 498.828125 813.53125 493.050781 865.503906 481.503906 C 871.277344 446.855469 874.164062 412.210938 874.164062 374.675781 C 874.164062 337.144531 871.277344 302.496094 865.503906 267.851562 C 813.53125 259.1875 755.789062 253.414062 692.269531 253.414062 C 628.75 253.414062 571.007812 259.1875 519.039062 267.851562 C 513.261719 302.496094 510.375 337.144531 510.375 374.675781 C 510.375 412.210938 513.261719 446.855469 519.039062 481.503906 Z M 519.039062 481.503906 " fill-opacity="1" fill-rule="evenodd"/><path fill="#b0dbfa" d="M 874.164062 374.675781 C 874.164062 412.210938 871.277344 446.855469 865.503906 481.503906 C 972.328125 461.292969 1041.621094 420.871094 1041.621094 374.675781 C 1041.621094 331.367188 972.328125 290.949219 865.503906 267.851562 C 871.277344 302.496094 874.164062 337.144531 874.164062 374.675781 Z M 874.164062 374.675781 " fill-opacity="1" fill-rule="evenodd"/><path fill="#b0dbfa" d="M 1041.621094 374.675781 C 1041.621094 420.871094 972.328125 461.292969 865.503906 481.503906 C 842.40625 622.976562 773.113281 726.917969 692.269531 726.917969 C 738.464844 726.917969 781.773438 718.253906 822.195312 700.929688 C 848.179688 689.382812 874.164062 674.945312 897.261719 657.625 C 943.457031 625.863281 978.101562 585.441406 1004.089844 536.359375 C 1027.1875 490.164062 1041.621094 441.082031 1041.621094 386.226562 C 1041.621094 383.339844 1041.621094 380.453125 1041.621094 374.675781 Z M 1041.621094 374.675781 " fill-opacity="1" fill-rule="evenodd"/><path fill="#fcc55b" d="M 1174.433594 614.316406 L 1004.089844 536.359375 C 1004.089844 536.359375 1004.089844 536.359375 1001.199219 539.246094 C 978.101562 585.441406 940.570312 628.75 897.261719 657.625 L 998.3125 715.367188 Z M 1174.433594 614.316406 " fill-opacity="1" fill-rule="evenodd"/><path fill="#fcd770" d="M 1174.433594 614.316406 L 998.3125 715.367188 L 998.3125 920.359375 L 1174.433594 819.308594 Z M 1174.433594 614.316406 " fill-opacity="1" fill-rule="evenodd"/><path fill="#fcd770" d="M 998.3125 920.359375 L 998.3125 715.367188 L 897.261719 657.625 C 874.164062 674.945312 848.179688 689.382812 822.195312 700.929688 L 822.195312 819.308594 Z M 998.3125 920.359375 " fill-opacity="1" fill-rule="evenodd"/><path fill="#79c3f5" d="M 998.3125 920.359375 L 822.195312 819.308594 L 822.195312 700.929688 C 781.773438 718.253906 738.464844 726.917969 692.269531 726.917969 C 501.714844 726.917969 348.691406 573.894531 342.917969 386.226562 L 172.574219 386.226562 L 172.574219 1064.71875 L 296.722656 1064.71875 C 296.722656 1047.394531 296.722656 1030.074219 302.496094 1012.75 L 244.753906 980.992188 C 236.089844 975.214844 233.203125 963.667969 238.976562 955.003906 L 279.398438 885.710938 C 285.171875 874.164062 296.722656 871.277344 305.382812 877.050781 L 360.242188 911.699219 C 386.226562 885.710938 417.984375 868.390625 452.632812 856.839844 L 452.632812 793.320312 C 452.632812 781.773438 461.292969 773.113281 469.953125 773.113281 L 550.796875 773.113281 C 562.34375 773.113281 571.007812 781.773438 571.007812 793.320312 L 571.007812 856.839844 C 605.652344 868.390625 634.527344 885.710938 660.511719 911.699219 L 718.253906 877.050781 C 726.917969 871.277344 738.464844 874.164062 741.351562 885.710938 L 784.660156 955.003906 C 790.433594 963.667969 784.660156 975.214844 776 980.992188 L 721.140625 1012.75 C 724.027344 1030.074219 726.917969 1047.394531 726.917969 1064.71875 L 1327.457031 1064.71875 L 1327.457031 386.226562 L 1041.621094 386.226562 C 1041.621094 441.082031 1027.1875 490.164062 1004.089844 536.359375 L 1174.433594 614.316406 L 1174.433594 819.308594 Z M 998.3125 920.359375 " fill-opacity="1" fill-rule="evenodd"/><path fill="#525263" d="M 660.511719 911.699219 C 634.527344 885.710938 605.652344 868.390625 571.007812 856.839844 L 571.007812 793.320312 C 571.007812 781.773438 562.34375 773.113281 550.796875 773.113281 L 469.953125 773.113281 C 461.292969 773.113281 452.632812 781.773438 452.632812 793.320312 L 452.632812 856.839844 C 417.984375 868.390625 386.226562 885.710938 360.242188 911.699219 L 305.382812 877.050781 C 296.722656 871.277344 285.171875 874.164062 279.398438 885.710938 L 238.976562 955.003906 C 233.203125 963.667969 236.089844 975.214844 244.753906 980.992188 L 302.496094 1012.75 C 296.722656 1030.074219 296.722656 1047.394531 296.722656 1064.71875 L 374.675781 1064.71875 C 374.675781 989.652344 435.308594 929.019531 510.375 929.019531 C 562.34375 929.019531 605.652344 957.894531 628.75 998.3125 C 640.300781 1018.523438 646.074219 1041.621094 646.074219 1064.71875 L 726.917969 1064.71875 C 726.917969 1047.394531 724.027344 1030.074219 721.140625 1012.75 L 776 980.992188 C 784.660156 975.214844 790.433594 963.667969 784.660156 955.003906 L 741.351562 885.710938 C 738.464844 874.164062 726.917969 871.277344 718.253906 877.050781 Z M 660.511719 911.699219 " fill-opacity="1" fill-rule="evenodd"/><path fill="#434350" d="M 628.75 998.3125 C 605.652344 957.894531 562.34375 929.019531 510.375 929.019531 C 435.308594 929.019531 374.675781 989.652344 374.675781 1064.71875 L 449.746094 1064.71875 C 449.746094 1030.074219 475.730469 1004.089844 510.375 1004.089844 C 545.023438 1004.089844 573.894531 1030.074219 573.894531 1064.71875 L 646.074219 1064.71875 C 646.074219 1041.621094 640.300781 1018.523438 628.75 998.3125 Z M 628.75 998.3125 " fill-opacity="1" fill-rule="evenodd"/><path fill="#ffffff" d="M 573.894531 1064.71875 C 573.894531 1030.074219 545.023438 1004.089844 510.375 1004.089844 C 475.730469 1004.089844 449.746094 1030.074219 449.746094 1064.71875 Z M 573.894531 1064.71875 " fill-opacity="1" fill-rule="evenodd"/><path fill="#656568" d="M 646.074219 1064.71875 L 389.113281 1064.71875 L 389.113281 1177.320312 C 389.113281 1191.757812 403.550781 1203.304688 417.984375 1203.304688 L 923.246094 1203.304688 L 923.246094 1093.589844 C 923.246094 1076.269531 934.796875 1064.71875 949.230469 1064.71875 Z M 646.074219 1064.71875 " fill-opacity="1" fill-rule="evenodd"/><path fill="#28262a" d="M 923.246094 1093.589844 L 923.246094 1203.304688 L 1082.042969 1203.304688 C 1099.367188 1203.304688 1110.914062 1191.757812 1110.914062 1177.320312 L 1110.914062 1064.71875 L 949.230469 1064.71875 C 934.796875 1064.71875 923.246094 1076.269531 923.246094 1093.589844 Z M 923.246094 1093.589844 " fill-opacity="1" fill-rule="evenodd"/><path fill="#36343a" d="M 1110.914062 1064.71875 L 1110.914062 1177.320312 L 1379.425781 1177.320312 C 1411.183594 1177.320312 1440.054688 1151.335938 1440.054688 1116.6875 L 1440.054688 334.257812 C 1440.054688 302.496094 1411.183594 273.625 1379.425781 273.625 L 1027.1875 273.625 C 1038.734375 305.382812 1041.621094 340.03125 1041.621094 374.675781 C 1041.621094 380.453125 1041.621094 383.339844 1041.621094 386.226562 L 1327.457031 386.226562 L 1327.457031 1064.71875 Z M 1110.914062 1064.71875 " fill-opacity="1" fill-rule="evenodd"/><path fill="#36343a" d="M 389.113281 1177.320312 L 389.113281 1064.71875 L 172.574219 1064.71875 L 172.574219 386.226562 L 342.917969 386.226562 C 342.917969 383.339844 342.917969 380.453125 342.917969 374.675781 C 342.917969 340.03125 345.804688 305.382812 357.355469 273.625 L 120.601562 273.625 C 88.84375 273.625 59.972656 302.496094 59.972656 334.257812 L 59.972656 1116.6875 C 59.972656 1151.335938 88.84375 1177.320312 120.601562 1177.320312 Z M 389.113281 1177.320312 " fill-opacity="1" fill-rule="evenodd"/><path fill="#36343a" d="M 625.863281 1203.304688 L 874.164062 1203.304688 L 874.164062 1356.328125 L 625.863281 1356.328125 Z M 625.863281 1203.304688 " fill-opacity="1" fill-rule="evenodd"/><path fill="#28262a" d="M 874.164062 1356.328125 L 625.863281 1356.328125 L 452.632812 1474.703125 L 1047.394531 1474.703125 Z M 874.164062 1356.328125 " fill-opacity="1" fill-rule="evenodd"/><path fill="#000000" d="M 689.382812 1148.449219 C 680.722656 1148.449219 674.945312 1142.675781 674.945312 1134.011719 C 674.945312 1128.238281 680.722656 1119.578125 689.382812 1119.578125 L 836.628906 1119.578125 C 845.292969 1119.578125 851.066406 1128.238281 851.066406 1134.011719 C 851.066406 1142.675781 845.292969 1148.449219 836.628906 1148.449219 Z M 689.382812 1148.449219 " fill-opacity="1" fill-rule="nonzero"/><path fill="#000000" d="M 461.292969 1122.464844 C 461.292969 1116.6875 467.066406 1108.027344 475.730469 1108.027344 C 484.390625 1108.027344 490.164062 1116.6875 490.164062 1122.464844 L 490.164062 1145.5625 C 490.164062 1154.222656 484.390625 1159.996094 475.730469 1159.996094 C 467.066406 1159.996094 461.292969 1154.222656 461.292969 1145.5625 Z M 461.292969 1122.464844 " fill-opacity="1" fill-rule="nonzero"/><path fill="#000000" d="M 533.472656 1122.464844 C 533.472656 1116.6875 539.246094 1108.027344 547.910156 1108.027344 C 553.683594 1108.027344 562.34375 1116.6875 562.34375 1122.464844 L 562.34375 1145.5625 C 562.34375 1154.222656 553.683594 1159.996094 547.910156 1159.996094 C 539.246094 1159.996094 533.472656 1154.222656 533.472656 1145.5625 Z M 533.472656 1122.464844 " fill-opacity="1" fill-rule="nonzero"/><path fill="#000000" d="M 602.765625 1122.464844 C 602.765625 1116.6875 608.539062 1108.027344 617.203125 1108.027344 C 625.863281 1108.027344 631.636719 1116.6875 631.636719 1122.464844 L 631.636719 1145.5625 C 631.636719 1154.222656 625.863281 1159.996094 617.203125 1159.996094 C 608.539062 1159.996094 602.765625 1154.222656 602.765625 1145.5625 Z M 602.765625 1122.464844 " fill-opacity="1" fill-rule="nonzero"/><path fill="#000000" d="M 949.230469 1050.285156 C 957.894531 1050.285156 963.667969 1056.058594 963.667969 1064.71875 C 963.667969 1073.382812 957.894531 1079.15625 949.230469 1079.15625 C 946.34375 1079.15625 943.457031 1082.042969 940.570312 1084.929688 C 937.683594 1084.929688 937.683594 1087.816406 937.683594 1093.589844 L 937.683594 1203.304688 C 937.683594 1211.96875 931.90625 1217.742188 923.246094 1217.742188 C 914.585938 1217.742188 908.808594 1211.96875 908.808594 1203.304688 L 908.808594 1093.589844 C 908.808594 1082.042969 911.699219 1070.492188 920.359375 1064.71875 C 929.019531 1056.058594 937.683594 1050.285156 949.230469 1050.285156 Z M 949.230469 1050.285156 " fill-opacity="1" fill-rule="nonzero"/><path fill="#000000" d="M 983.878906 1148.449219 C 978.101562 1148.449219 969.441406 1142.675781 969.441406 1134.011719 C 969.441406 1128.238281 978.101562 1119.578125 983.878906 1119.578125 L 1047.394531 1119.578125 C 1056.058594 1119.578125 1061.832031 1128.238281 1061.832031 1134.011719 C 1061.832031 1142.675781 1056.058594 1148.449219 1047.394531 1148.449219 Z M 983.878906 1148.449219 " fill-opacity="1" fill-rule="nonzero"/><path fill="#000000" d="M 1027.1875 288.0625 C 1018.523438 288.0625 1012.75 282.285156 1012.75 273.625 C 1012.75 267.851562 1018.523438 259.1875 1027.1875 259.1875 L 1379.425781 259.1875 C 1399.636719 259.1875 1419.847656 267.851562 1431.394531 282.285156 C 1431.394531 282.285156 1431.394531 282.285156 1434.28125 282.285156 C 1445.832031 296.722656 1454.492188 314.046875 1454.492188 334.257812 L 1454.492188 1116.6875 C 1454.492188 1136.898438 1445.832031 1157.109375 1431.394531 1168.660156 C 1419.847656 1183.09375 1399.636719 1191.757812 1379.425781 1191.757812 L 1110.914062 1191.757812 C 1102.253906 1191.757812 1096.480469 1185.980469 1096.480469 1177.320312 C 1096.480469 1168.660156 1102.253906 1162.882812 1110.914062 1162.882812 L 1379.425781 1162.882812 C 1390.972656 1162.882812 1402.523438 1157.109375 1411.183594 1148.449219 C 1419.847656 1139.785156 1425.621094 1128.238281 1425.621094 1116.6875 L 1425.621094 334.257812 C 1425.621094 322.707031 1419.847656 311.160156 1411.183594 302.496094 C 1402.523438 293.835938 1390.972656 288.0625 1379.425781 288.0625 Z M 389.113281 1162.882812 C 397.773438 1162.882812 403.550781 1168.660156 403.550781 1177.320312 C 403.550781 1185.980469 397.773438 1191.757812 389.113281 1191.757812 L 120.601562 1191.757812 C 100.390625 1191.757812 83.070312 1183.09375 68.632812 1168.660156 C 54.195312 1157.109375 45.535156 1136.898438 45.535156 1116.6875 L 45.535156 334.257812 C 45.535156 314.046875 54.195312 296.722656 68.632812 282.285156 C 83.070312 267.851562 100.390625 259.1875 120.601562 259.1875 L 357.355469 259.1875 C 366.015625 259.1875 371.789062 267.851562 371.789062 273.625 C 371.789062 282.285156 366.015625 288.0625 357.355469 288.0625 L 120.601562 288.0625 C 109.054688 288.0625 97.503906 293.835938 88.84375 302.496094 C 80.183594 311.160156 74.40625 322.707031 74.40625 334.257812 L 74.40625 1116.6875 C 74.40625 1128.238281 80.183594 1139.785156 88.84375 1148.449219 C 97.503906 1157.109375 109.054688 1162.882812 120.601562 1162.882812 Z M 389.113281 1162.882812 " fill-opacity="1" fill-rule="nonzero"/><path fill="#000000" d="M 1041.621094 400.660156 C 1032.960938 400.660156 1027.1875 394.886719 1027.1875 386.226562 C 1027.1875 377.5625 1032.960938 371.789062 1041.621094 371.789062 L 1327.457031 371.789062 C 1336.117188 371.789062 1341.890625 377.5625 1341.890625 386.226562 L 1341.890625 1064.71875 C 1341.890625 1073.382812 1336.117188 1079.15625 1327.457031 1079.15625 L 172.574219 1079.15625 C 163.910156 1079.15625 158.136719 1073.382812 158.136719 1064.71875 L 158.136719 386.226562 C 158.136719 377.5625 163.910156 371.789062 172.574219 371.789062 L 342.917969 371.789062 C 351.578125 371.789062 357.355469 377.5625 357.355469 386.226562 C 357.355469 394.886719 351.578125 400.660156 342.917969 400.660156 L 187.007812 400.660156 L 187.007812 1050.285156 L 1313.019531 1050.285156 L 1313.019531 400.660156 Z M 1041.621094 400.660156 " fill-opacity="1" fill-rule="nonzero"/><g clip-path="url(#44e4f32691)"><path fill="#000000" d="M 611.429688 1347.664062 L 611.429688 1203.304688 C 611.429688 1197.53125 617.203125 1188.871094 625.863281 1188.871094 L 874.164062 1188.871094 C 882.824219 1188.871094 888.601562 1197.53125 888.601562 1203.304688 L 888.601562 1347.664062 L 1056.058594 1463.152344 C 1061.832031 1466.042969 1061.832031 1477.589844 1058.945312 1483.363281 C 1056.058594 1486.25 1050.285156 1489.140625 1047.394531 1489.140625 L 452.632812 1489.140625 C 446.855469 1489.140625 438.195312 1483.363281 438.195312 1474.703125 C 438.195312 1468.929688 441.082031 1466.042969 446.855469 1463.152344 Z M 640.300781 1217.742188 L 640.300781 1356.328125 C 640.300781 1359.214844 637.414062 1364.988281 634.527344 1367.875 L 498.828125 1460.265625 L 1001.199219 1460.265625 L 865.503906 1367.875 C 862.613281 1364.988281 859.726562 1362.101562 859.726562 1356.328125 L 859.726562 1217.742188 Z M 640.300781 1217.742188 " fill-opacity="1" fill-rule="nonzero"/></g><path fill="#000000" d="M 625.863281 1370.761719 C 617.203125 1370.761719 611.429688 1364.988281 611.429688 1356.328125 C 611.429688 1347.664062 617.203125 1341.890625 625.863281 1341.890625 L 874.164062 1341.890625 C 882.824219 1341.890625 888.601562 1347.664062 888.601562 1356.328125 C 888.601562 1364.988281 882.824219 1370.761719 874.164062 1370.761719 Z M 625.863281 1370.761719 " fill-opacity="1" fill-rule="nonzero"/><g clip-path="url(#5c1ddb9a44)"><path fill="#000000" d="M 363.128906 1489.140625 C 354.464844 1489.140625 345.804688 1483.363281 345.804688 1474.703125 C 345.804688 1466.042969 354.464844 1460.265625 363.128906 1460.265625 L 1139.785156 1460.265625 C 1145.5625 1460.265625 1154.222656 1466.042969 1154.222656 1474.703125 C 1154.222656 1483.363281 1145.5625 1489.140625 1139.785156 1489.140625 Z M 363.128906 1489.140625 " fill-opacity="1" fill-rule="nonzero"/></g><path stroke-linecap="butt" transform="matrix(2.887207, 0, 0, 2.887207, 10.889102, 10.889049)" fill-opacity="1" fill="#000000" fill-rule="nonzero" stroke-linejoin="miter" d="M 131.000031 360.000577 L 380.999715 360.000577 C 384.00056 360.000577 386.000222 362.000239 386.000222 364.999732 L 386.000222 403.999904 C 386.000222 408.000581 384.00056 411.999905 381.999546 413.999567 C 379.000053 417.000413 374.999376 418.000244 371.000052 418.000244 L 140.999694 418.000244 C 137.00037 418.000244 132.999693 417.000413 131.000031 413.999567 C 128.000538 411.999905 125.999524 408.000581 125.999524 403.999904 L 125.999524 364.999732 C 125.999524 362.000239 129.000369 360.000577 131.000031 360.000577 Z M 376.00056 370.000239 L 136.000539 370.000239 L 136.000539 403.999904 C 136.000539 404.999735 137.00037 405.999566 138.000201 406.999397 C 138.000201 408.000581 139.000032 408.000581 140.999694 408.000581 L 371.000052 408.000581 C 372.999714 408.000581 373.999545 408.000581 374.999376 406.999397 C 374.999376 405.999566 376.00056 404.999735 376.00056 403.999904 Z M 376.00056 370.000239 " stroke="#28262a" stroke-width="0.9" stroke-opacity="1" stroke-miterlimit="4"/><path fill="#000000" d="M 1009.863281 521.925781 L 1180.207031 602.765625 C 1185.980469 602.765625 1188.871094 608.539062 1188.871094 614.316406 L 1188.871094 819.308594 C 1188.871094 825.082031 1185.980469 827.96875 1180.207031 830.855469 L 1004.089844 931.90625 C 1001.199219 934.796875 995.425781 934.796875 989.652344 931.90625 L 813.53125 830.855469 C 810.644531 827.96875 807.757812 822.195312 807.757812 819.308594 L 807.757812 700.929688 C 807.757812 695.15625 810.644531 689.382812 816.417969 686.496094 C 853.953125 672.058594 888.601562 651.847656 917.472656 622.976562 C 949.230469 596.992188 972.328125 565.234375 992.539062 527.699219 C 995.425781 521.925781 1004.089844 519.039062 1009.863281 521.925781 Z M 1159.996094 622.976562 L 1009.863281 553.683594 C 989.652344 588.332031 966.554688 620.089844 937.683594 646.074219 C 908.808594 672.058594 874.164062 695.15625 836.628906 709.59375 L 836.628906 810.644531 L 998.3125 903.035156 L 1159.996094 810.644531 Z M 1159.996094 622.976562 " fill-opacity="1" fill-rule="nonzero"/><path fill="#000000" d="M 983.878906 715.367188 C 983.878906 709.59375 989.652344 700.929688 998.3125 700.929688 C 1006.976562 700.929688 1012.75 709.59375 1012.75 715.367188 L 1012.75 920.359375 C 1012.75 929.019531 1006.976562 934.796875 998.3125 934.796875 C 989.652344 934.796875 983.878906 929.019531 983.878906 920.359375 Z M 983.878906 715.367188 " fill-opacity="1" fill-rule="nonzero"/><path fill="#000000" d="M 891.488281 672.058594 C 882.824219 666.285156 882.824219 657.625 885.710938 651.847656 C 888.601562 646.074219 897.261719 643.1875 905.921875 646.074219 L 998.3125 700.929688 L 1165.773438 602.765625 C 1174.433594 596.992188 1183.09375 599.878906 1185.980469 608.539062 C 1191.757812 614.316406 1188.871094 622.976562 1180.207031 625.863281 L 1006.976562 726.917969 C 1001.199219 732.691406 995.425781 732.691406 989.652344 729.804688 Z M 891.488281 672.058594 " fill-opacity="1" fill-rule="nonzero"/><g clip-path="url(#345274b919)"><path fill="#000000" d="M 692.269531 10.890625 C 793.320312 10.890625 882.824219 51.308594 949.230469 117.714844 C 1015.636719 184.121094 1056.058594 273.625 1056.058594 374.675781 C 1056.058594 475.730469 1015.636719 568.121094 949.230469 634.527344 C 882.824219 698.042969 793.320312 741.351562 692.269531 741.351562 C 591.21875 741.351562 501.714844 698.042969 435.308594 634.527344 C 368.902344 568.121094 328.480469 475.730469 328.480469 374.675781 C 328.480469 273.625 368.902344 184.121094 435.308594 117.714844 C 501.714844 51.308594 591.21875 10.890625 692.269531 10.890625 Z M 929.019531 137.925781 C 868.390625 77.292969 784.660156 39.761719 692.269531 39.761719 C 599.878906 39.761719 516.148438 77.292969 455.519531 137.925781 C 394.886719 198.558594 357.355469 282.285156 357.355469 374.675781 C 357.355469 467.066406 394.886719 550.796875 455.519531 614.316406 C 516.148438 674.945312 599.878906 712.480469 692.269531 712.480469 C 784.660156 712.480469 868.390625 674.945312 929.019531 614.316406 C 989.652344 550.796875 1027.1875 467.066406 1027.1875 374.675781 C 1027.1875 282.285156 989.652344 198.558594 929.019531 137.925781 Z M 929.019531 137.925781 " fill-opacity="1" fill-rule="nonzero"/></g><g clip-path="url(#f2fab2fde2)"><path fill="#000000" d="M 692.269531 10.890625 C 747.125 10.890625 799.097656 54.195312 833.742188 120.601562 C 868.390625 187.007812 888.601562 276.511719 888.601562 374.675781 C 888.601562 475.730469 868.390625 565.234375 833.742188 628.75 C 799.097656 698.042969 747.125 741.351562 692.269531 741.351562 C 637.414062 741.351562 585.441406 698.042969 550.796875 628.75 C 516.148438 565.234375 495.941406 475.730469 495.941406 374.675781 C 495.941406 276.511719 516.148438 187.007812 550.796875 120.601562 C 585.441406 54.195312 637.414062 10.890625 692.269531 10.890625 Z M 807.757812 135.039062 C 778.886719 77.292969 735.578125 39.761719 692.269531 39.761719 C 648.960938 39.761719 605.652344 77.292969 576.78125 135.039062 C 545.023438 195.671875 524.8125 282.285156 524.8125 374.675781 C 524.8125 469.953125 545.023438 553.683594 576.78125 617.203125 C 605.652344 674.945312 648.960938 712.480469 692.269531 712.480469 C 735.578125 712.480469 778.886719 674.945312 807.757812 617.203125 C 839.515625 553.683594 859.726562 469.953125 859.726562 374.675781 C 859.726562 282.285156 839.515625 195.671875 807.757812 135.039062 Z M 807.757812 135.039062 " fill-opacity="1" fill-rule="nonzero"/></g><path fill="#000000" d="M 692.269531 238.976562 C 790.433594 238.976562 879.9375 253.414062 943.457031 276.511719 C 1012.75 299.609375 1056.058594 334.257812 1056.058594 374.675781 C 1056.058594 415.097656 1012.75 452.632812 943.457031 475.730469 C 879.9375 498.828125 790.433594 513.261719 692.269531 513.261719 C 594.105469 513.261719 504.601562 498.828125 441.082031 475.730469 C 371.789062 452.632812 328.480469 415.097656 328.480469 374.675781 C 328.480469 334.257812 371.789062 299.609375 441.082031 276.511719 C 504.601562 253.414062 594.105469 238.976562 692.269531 238.976562 Z M 934.796875 302.496094 C 874.164062 282.285156 787.546875 267.851562 692.269531 267.851562 C 596.992188 267.851562 510.375 282.285156 449.746094 302.496094 C 392 322.707031 357.355469 348.691406 357.355469 374.675781 C 357.355469 403.550781 392 429.535156 449.746094 449.746094 C 510.375 469.953125 596.992188 484.390625 692.269531 484.390625 C 787.546875 484.390625 874.164062 469.953125 934.796875 449.746094 C 992.539062 429.535156 1027.1875 403.550781 1027.1875 374.675781 C 1027.1875 348.691406 992.539062 322.707031 934.796875 302.496094 Z M 934.796875 302.496094 " fill-opacity="1" fill-rule="nonzero"/><path fill="#000000" d="M 585.441406 848.179688 C 599.878906 853.953125 614.316406 859.726562 625.863281 865.503906 C 640.300781 874.164062 651.847656 882.824219 663.398438 891.488281 L 709.59375 865.503906 C 709.59375 865.503906 712.480469 865.503906 712.480469 865.503906 C 718.253906 859.726562 726.917969 859.726562 735.578125 862.613281 C 744.238281 862.613281 750.015625 868.390625 755.789062 877.050781 L 796.210938 949.230469 C 801.984375 957.894531 801.984375 966.554688 799.097656 972.328125 C 796.210938 980.992188 793.320312 989.652344 784.660156 992.539062 L 735.578125 1021.410156 C 738.464844 1027.1875 738.464844 1032.960938 738.464844 1038.734375 C 741.351562 1047.394531 741.351562 1056.058594 741.351562 1064.71875 C 741.351562 1073.382812 735.578125 1079.15625 726.917969 1079.15625 L 296.722656 1079.15625 C 288.0625 1079.15625 282.285156 1073.382812 282.285156 1064.71875 C 282.285156 1056.058594 282.285156 1047.394531 282.285156 1038.734375 C 282.285156 1032.960938 285.171875 1027.1875 285.171875 1021.410156 L 238.976562 992.539062 C 230.316406 989.652344 224.542969 980.992188 221.65625 972.328125 C 221.65625 966.554688 221.65625 955.003906 224.542969 949.230469 L 224.542969 946.34375 L 267.851562 877.050781 C 270.738281 868.390625 279.398438 862.613281 288.0625 862.613281 C 293.835938 859.726562 305.382812 859.726562 311.160156 865.503906 L 314.046875 865.503906 L 360.242188 891.488281 C 371.789062 882.824219 383.339844 874.164062 394.886719 865.503906 C 409.324219 859.726562 423.757812 853.953125 438.195312 848.179688 L 438.195312 793.320312 C 438.195312 784.660156 441.082031 776 446.855469 770.222656 C 452.632812 764.449219 461.292969 758.675781 469.953125 758.675781 L 550.796875 758.675781 C 562.34375 758.675781 568.121094 764.449219 576.78125 770.222656 C 582.554688 776 585.441406 784.660156 585.441406 793.320312 Z M 611.429688 891.488281 C 596.992188 882.824219 582.554688 877.050781 568.121094 871.277344 C 562.34375 871.277344 556.570312 865.503906 556.570312 856.839844 L 556.570312 793.320312 C 556.570312 790.433594 556.570312 790.433594 556.570312 790.433594 C 553.683594 790.433594 553.683594 787.546875 550.796875 787.546875 L 469.953125 787.546875 C 469.953125 787.546875 467.066406 790.433594 467.066406 790.433594 C 467.066406 790.433594 467.066406 790.433594 467.066406 793.320312 L 467.066406 856.839844 C 467.066406 865.503906 461.292969 871.277344 455.519531 871.277344 C 441.082031 877.050781 423.757812 882.824219 409.324219 891.488281 C 394.886719 900.148438 383.339844 908.808594 371.789062 920.359375 C 366.015625 926.132812 360.242188 926.132812 354.464844 923.246094 L 299.609375 891.488281 C 299.609375 891.488281 296.722656 891.488281 296.722656 891.488281 C 296.722656 888.601562 296.722656 888.601562 293.835938 888.601562 C 293.835938 888.601562 293.835938 891.488281 290.949219 891.488281 L 250.527344 960.78125 C 250.527344 963.667969 250.527344 963.667969 250.527344 966.554688 C 250.527344 966.554688 250.527344 966.554688 253.414062 969.441406 L 308.269531 1001.199219 C 314.046875 1004.089844 316.933594 1009.863281 316.933594 1015.636719 C 314.046875 1024.296875 311.160156 1032.960938 311.160156 1041.621094 C 311.160156 1044.507812 311.160156 1047.394531 311.160156 1050.285156 L 712.480469 1050.285156 C 712.480469 1047.394531 712.480469 1044.507812 709.59375 1041.621094 C 709.59375 1032.960938 709.59375 1024.296875 706.707031 1018.523438 C 703.820312 1009.863281 706.707031 1004.089844 712.480469 1001.199219 L 770.222656 969.441406 C 770.222656 966.554688 770.222656 966.554688 773.113281 966.554688 C 773.113281 963.667969 773.113281 963.667969 770.222656 963.667969 L 729.804688 891.488281 C 729.804688 891.488281 729.804688 888.601562 726.917969 888.601562 C 726.917969 888.601562 726.917969 888.601562 724.027344 888.601562 L 724.027344 891.488281 L 669.171875 923.246094 C 663.398438 926.132812 654.734375 926.132812 651.847656 920.359375 C 640.300781 908.808594 625.863281 900.148438 611.429688 891.488281 Z M 224.542969 949.230469 L 224.542969 946.34375 Z M 224.542969 949.230469 " fill-opacity="1" fill-rule="nonzero"/><path fill="#000000" d="M 510.375 914.585938 C 553.683594 914.585938 591.21875 931.90625 617.203125 957.894531 C 646.074219 986.765625 660.511719 1024.296875 660.511719 1064.71875 C 660.511719 1073.382812 654.734375 1079.15625 646.074219 1079.15625 L 374.675781 1079.15625 C 366.015625 1079.15625 360.242188 1073.382812 360.242188 1064.71875 C 360.242188 1024.296875 377.5625 986.765625 403.550781 957.894531 C 432.421875 931.90625 469.953125 914.585938 510.375 914.585938 Z M 596.992188 980.992188 C 573.894531 957.894531 545.023438 943.457031 510.375 943.457031 C 478.617188 943.457031 446.855469 957.894531 426.648438 980.992188 C 406.4375 998.3125 394.886719 1024.296875 389.113281 1050.285156 L 631.636719 1050.285156 C 628.75 1024.296875 617.203125 998.3125 596.992188 980.992188 Z M 596.992188 980.992188 " fill-opacity="1" fill-rule="nonzero"/><path fill="#000000" d="M 524.8125 929.019531 C 524.8125 937.683594 519.039062 943.457031 510.375 943.457031 C 501.714844 943.457031 495.941406 937.683594 495.941406 929.019531 L 495.941406 908.808594 C 495.941406 900.148438 501.714844 894.375 510.375 894.375 C 519.039062 894.375 524.8125 900.148438 524.8125 908.808594 Z M 524.8125 929.019531 " fill-opacity="1" fill-rule="nonzero"/><path fill="#000000" d="M 634.527344 1009.863281 C 628.75 1012.75 620.089844 1012.75 617.203125 1004.089844 C 611.429688 998.3125 614.316406 989.652344 622.976562 983.878906 L 640.300781 975.214844 C 646.074219 969.441406 654.734375 972.328125 660.511719 980.992188 C 663.398438 986.765625 660.511719 995.425781 654.734375 998.3125 Z M 634.527344 1009.863281 " fill-opacity="1" fill-rule="nonzero"/><path fill="#000000" d="M 400.660156 983.878906 C 406.4375 989.652344 409.324219 998.3125 406.4375 1004.089844 C 400.660156 1012.75 392 1012.75 386.226562 1009.863281 L 368.902344 998.3125 C 360.242188 995.425781 357.355469 986.765625 363.128906 978.101562 C 366.015625 972.328125 374.675781 969.441406 383.339844 975.214844 Z M 400.660156 983.878906 " fill-opacity="1" fill-rule="nonzero"/><path fill="#000000" d="M 510.375 989.652344 C 533.472656 989.652344 550.796875 998.3125 565.234375 1009.863281 C 579.667969 1024.296875 588.332031 1044.507812 588.332031 1064.71875 C 588.332031 1073.382812 579.667969 1079.15625 573.894531 1079.15625 L 449.746094 1079.15625 C 441.082031 1079.15625 435.308594 1073.382812 435.308594 1064.71875 C 435.308594 1044.507812 443.96875 1024.296875 455.519531 1012.75 C 458.40625 1009.863281 458.40625 1009.863281 458.40625 1009.863281 C 472.84375 998.3125 490.164062 989.652344 510.375 989.652344 Z M 545.023438 1032.960938 C 536.359375 1024.296875 524.8125 1018.523438 510.375 1018.523438 C 498.828125 1018.523438 487.277344 1021.410156 478.617188 1030.074219 L 478.617188 1032.960938 C 472.84375 1035.847656 467.066406 1044.507812 464.179688 1050.285156 L 556.570312 1050.285156 C 553.683594 1044.507812 550.796875 1035.847656 545.023438 1032.960938 Z M 545.023438 1032.960938 " fill-opacity="1" fill-rule="nonzero"/></svg>